<?xml version="1.0" encoding="utf-8"?>
<!-- Generator: Adobe Illustrator 16.0.0, SVG Export Plug-In . SVG Version: 6.00 Build 0)  -->
<!DOCTYPE svg PUBLIC "-//W3C//DTD SVG 1.1//EN" "http://www.w3.org/Graphics/SVG/1.1/DTD/svg11.dtd">
<svg version="1.1" id="Layer_1" xmlns="http://www.w3.org/2000/svg" xmlns:xlink="http://www.w3.org/1999/xlink" x="0px" y="0px"
	 width="1000px" height="1000px" viewBox="0 0 1000 1000" enable-background="new 0 0 1000 1000" xml:space="preserve">
<g>
	<path fill="#FFFFFF" d="M73.075,313.717c13.271-11.932,49.695-34.843,80.395-30.46c0,0-19.247,152.426-16.545,352.3
		C182.523,465.32,238.889,330.02,262.416,295.293c9.895-0.516,32.018,1.235,44.221,4.361
		c-35.298,61.013-87.668,131.518-154.286,373.469c0,0-17.649,6.269-59.202-11.387C72.082,512.573,71.219,343.713,73.075,313.717"/>
	<path fill="#FFFFFF" d="M207.457,537.354c104.04-3.276,78.769-4.686,78.769-4.686c4.004-15.93,20.505-76.863,4.502-76.863
		c-16.01,0-27.513,17.339-39.012,47.335c-11.512,29.996-22.009,46.863-18.513,94.685c3.5,47.813,40.129,8.889,70.124-23.93
		c21.881-23.951,23.645-34.581,28.408-49.47c3.867-12.092,2.068,28.916,2.068,28.916s-37.577,53.543-67.084,75.271
		c-29.518,21.717-55.78,19.138-67.527-23.292c-12.811-46.221,10.853-92.172,20.008-109.684
		c14.778-28.283,43.015-55.773,73.528-52.033c30.513,3.748,38.614,13.688,25.508,70.786l-8.172,32.038
		c-32.174,5.768-61.551,3.726-86.932,3.575"/>
	<path fill="#FFFFFF" d="M337.487,469.599l-35.299,197.547c0,0,19.643,8.258,35.299,4.84
		c11.672-62.909,47.253-212.074,47.253-212.074s-13.664-17.504-42.13-20.347L337.487,469.599z"/>
	<path fill="#FFFFFF" d="M457.082,595.125c4.6-28.311,11,5.251,10.718,5.065c-3.538,14.713-15.878,39.915-29.166,58.981
		c-4.545,6.529-18.312,21.729-33.877,20.495c-15.563-1.227-20.017-21.341-15.84-49.428c3.896-26.212,6.456-31.531,12.6-61.938
		c6.135-30.389,16.097-62.843,6.564-69.956c-8.53-6.359-15.554-1.504-17.833,0c-8.21,5.404-24.867,25.526-27.526,31.416
		c-2.656,5.888-1.039-16.328-1.039-16.328s31.027-44.688,56.646-37.858c25.613,6.833,33.876,22.771,23.626,66.04
		c-10.253,43.254-21.347,88.81-21.347,89.662c0,0-2.562,10.152-2.755,15.567c-0.192,5.399,0.457,9.179,3.032,8.728
		C428.578,654.616,453.703,615.905,457.082,595.125"/>
	<path fill="#FFFFFF" d="M524.269,366.427c18.419,0,40.755,9.758,48.943,18.569c-8.142,15.395-67.685,111.374-77.189,185.415
		c-7.476,58.622,0.221,98.694,0,107.984c0,0-2.491,2.715-6.345,2.946c-3.847,0.218-25.354-13.134-33.729-28.752
		c-2.27-19.479-3.985-59.089,13.214-128.707c13.139-56.259,31.883-101.859,37.77-117.986
		C512.825,389.754,524.269,366.427,524.269,366.427"/>
	<path fill="#FFFFFF" d="M426.271,486.684c6.319,2.05,23.415,9.484,71.734,4.278c48.331-5.206,62.179-17.593,62.179-17.593
		l10.533,10.177l-0.605,14.658l-3.896-8.364l-5.39,4.467c0,0-30.671,14.878-71.186,15.233c-32.892,0.564-45.71-2.592-65.786-10.959
		L426.271,486.684z"/>
	<path fill="#FFFFFF" d="M511.52,622.31c-0.174-2.724,0.451-7.474,1.132-13.816c0.677-6.337,6.749-28.636,10.145-40.416
		c4.687-16.249,31.729-89.27,37.388-94.708c6.113-2.031,29.65,5.206,31.008,7.245c0,0-19.238,42.327-33.721,89.848
		c-12.001,44.135-10.75,54.323-9.566,60.778c1.184,6.447,4.994,13.906,12.732,0.112c7.735-13.785,20.775-48.733,21.912-52.362
		c0,0,3.887,32.374,2.299,43.745c-1.701,12.238-2.693,10.009-15.34,28.395c-12.509,18.125-24.58,21.29-30.384,17.564
		C525.645,663.166,513.613,654.887,511.52,622.31"/>
	<path fill="#FFFFFF" d="M633.365,655.103c-8.816,19.815-23.807,20.301-33.713,16.313c-12.074-5.221-29.844-15.67-24.344-56.02
		c0.934-6.134,5.343-27.46,7.842-39.159c3.443-16.156,26.84-87.864,29.523-95.89c6.053-2.491,30.605,2.521,32.156,4.373
		c0,0-11.869,41.52-27.006,89.99c-15.139,48.466-15.062,67.018-13.33,73.167c3.043,9.491,11.291,15.467,17.883-5.679
		c1.828-5.364,2.802-8.408,3.943-12.073"/>
	<path fill="#FFFFFF" d="M632.771,656.231c6.072-9.866,67.559-185.212,67.559-185.212s-12.523-72.124-13.67-49.34
		c-6.07,53.888-53.133,186.813-60.336,208.446L632.771,656.231z"/>
	<path fill="#FFFFFF" d="M663.324,390.177c2.463,12.518,23.721,65.755,47.635,116.995c-7.588,29.226-26,75.813-25.338,103.131
		c0.855,18.477,1.424,36.444,17.75,49.729c12.902,10.615,26.547-0.479,29.221-2.288c15.131-10.128,34.543-22.395,34.543-22.395
		l-9.115-7.393l-25.428,17.646c0,0-17.844,12.725-23.15-5.496c-5.314-18.224,4.148-44.628,8.355-55.236
		c4.74-11.938,25.037-59.393,28.08-65.46c3.029-6.073,11.01-25.246,3.416-37.76c-13.773-22.725-37.582-58.832-44.791-97.543
		C686.283,373.85,663.324,390.177,663.324,390.177"/>
	<path fill="#FFFFFF" d="M770.928,623.595c17.531-11.474,57.596-35.874,69.008-69.896c9.02-26.846,10.316-46.812-1.906-42.606
		c-27.447,9.456-45.877,51.068-54.49,69.23c-8.6,18.171-20.102,66.126-0.02,74.735c20.078,8.609,37.929-3.823,60.881-21.993
		c5.846-4.622,11.67-9.604,17.617-14.347c17.422-13.891,20.062-6.358-0.365,12.821c-12.607,11.834-14.682,16.248-32.236,27.663
		c-17.938,11.661-42.93,20.562-63.805,10.876c-32.766-15.215-33.094-68.251-17.791-96.292c15.305-28.054,48.252-74.02,94.35-75.231
		c26.195-0.696,42.969,8.835,33.467,42.072c-8.316,29.064-30.98,45.373-56.793,64.178c-25.822,18.805-49.439,32.068-49.439,32.068
		L770.928,623.595z"/>
	<polygon fill="#FFFFFF" points="944.496,306.146 819.924,245.399 720.521,291.119 776.904,491.486 969.66,412.636 	"/>
	<path fill="#FFFFFF" d="M272.979,790.455h26.707c1.356,0,1.982,0.418,1.982,1.878v4.799c0,1.461-0.626,1.982-1.982,1.982h-35.262
		c-1.147,0-1.669-0.73-1.669-2.087V730.26c0-1.46,0.521-2.086,1.982-2.086h6.364c1.356,0,1.878,0.626,1.878,2.086V790.455z"/>
	<path fill="#FFFFFF" d="M409.117,728.174c1.356,0,2.087,0.626,2.504,1.982l20.239,66.976c0.417,1.252-0.104,1.982-1.564,1.982
		h-6.573c-1.355,0-1.981-0.73-2.295-1.982l-4.903-16.17h-22.012l-4.8,16.17c-0.312,1.252-0.938,1.982-2.295,1.982h-6.051
		c-1.356,0-1.878-0.73-1.46-1.982l20.238-66.976c0.418-1.356,1.147-1.982,2.504-1.982H409.117z M408.491,753.838
		c-1.251-3.86-2.712-14.084-2.816-15.231c-0.209,0.938-1.564,10.536-2.921,15.022l-5.946,19.195h17.526L408.491,753.838z"/>
	<path fill="#FFFFFF" d="M517.402,799.114c-1.356,0-1.878-0.626-1.878-2.087V730.26c0-1.46,0.521-2.086,1.878-2.086h18.465
		c17.944,0,23.682,6.677,23.682,15.127v6.572c0,5.425-2.503,9.598-8.763,11.997c7.929,2.191,11.788,6.677,11.788,12.728v8.868
		c0,8.555-5.737,15.648-23.682,15.648H517.402z M525.644,736.624v22.117h10.954c8.659,0,12.832-3.339,12.832-9.077v-4.799
		c0-5.737-4.173-8.241-13.562-8.241H525.644z M525.644,766.669v23.995h13.249c9.39,0,13.562-3.234,13.562-8.972v-6.364
		c0-5.216-4.173-8.659-13.562-8.659H525.644z"/>
	<path fill="#FFFFFF" d="M684.003,744.762c0-5.634-3.443-8.868-12.624-8.868s-12.623,3.234-12.623,8.868v2.086
		c0,4.799,3.13,6.155,5.32,6.99l18.987,7.198c6.26,2.399,11.476,6.468,11.476,14.188v8.659c0,8.555-5.946,16.066-23.368,16.066
		c-17.423,0-23.474-7.512-23.474-16.066v-6.051c0-1.461,0.626-2.086,1.982-2.086h6.155c1.356,0,1.878,0.625,1.878,2.086v4.694
		c0,5.634,3.964,8.868,13.354,8.868c9.389,0,13.458-3.234,13.458-8.868v-4.903c0-5.216-4.695-6.989-8.764-8.555l-17.631-6.78
		c-4.59-1.773-9.285-6.469-9.285-12.937v-5.946c0-8.555,5.426-16.066,22.43-16.066c17.005,0,22.639,7.512,22.639,16.066v4.59
		c0,1.356-0.521,1.982-1.878,1.982h-6.155c-1.46,0-1.877-0.626-1.877-1.982V744.762z"/>
</g>
</svg>
